<svg xmlns="http://www.w3.org/2000/svg" width="24" height="24" viewBox="0 0 24 24"><g fill="none" fill-rule="evenodd"><path fill="white" d="M18 3a3 3 0 0 1 3 3v4.437a7 7 0 0 0-10.232 7.988L8 20.5c-.824.618-2 .03-2-1V18H5a3 3 0 0 1-3-3V6a3 3 0 0 1 3-3h12M9 12H3a1 1 0 1 0 0 2h6a1 1 0 1 0 0-2M7 7H5a1 1 0 0 0-.117 1.993L5 9h2a1 1 0 0 0 .117-1.993zm12 0h-8a1 1 0 0 0-.117 1.993L11 9h8a1 1 0 0 0 .117-1.993z"/><path xmlns="http://www.w3.org/2000/svg" fill="{{ACCENT_COLOR}}" d="M13 16.5a4.5 4.5 0 1 1 9 0a4.5 4.5 0 0 1-9 0m2.172-.914a2.5 2.5 0 0 0 3.241 3.241zm1.414-1.414l3.242 3.242a2.5 2.5 0 0 0-3.241-3.241"/></g></svg>
